HIERARCHY
ROOT Hips
{
	OFFSET 0.000000 71.427986 0.000000
	CHANNELS 6 Xposition Yposition Zposition Xrotation Yrotation Zrotation
	JOINT Pelvis
	{
		OFFSET 0.000000 0.000000 0.000000
		CHANNELS 3 Xrotation Yrotation Zrotation
		JOINT LeftUpLeg
		{
			OFFSET 6.797100 -2.508499 -1.318700
			CHANNELS 3 Xrotation Yrotation Zrotation
			JOINT LeftLeg
			{
				OFFSET 0.069008 -29.241863 0.690200
				CHANNELS 3 Xrotation Yrotation Zrotation
				JOINT LeftFoot
				{
					OFFSET -0.069008 -29.568123 -0.266800
					CHANNELS 3 Xrotation Yrotation Zrotation
					JOINT LeftToeBase
					{
						OFFSET 3.145500 -8.631000 16.059900
						CHANNELS 3 Xrotation Yrotation Zrotation
						End Site
						{
							OFFSET 0.000000 18.501587 0.000000
						}
					}
				}
			}
			JOINT Left_ShortSleeve
			{
				OFFSET 0.265923 -10.480953 1.153800
				CHANNELS 3 Xrotation Yrotation Zrotation
				End Site
				{
					OFFSET 1.725763 19.823879 0.000000
				}
			}
		}
		JOINT RightUpLeg
		{
			OFFSET -6.797100 -2.508499 -1.318700
			CHANNELS 3 Xrotation Yrotation Zrotation
			JOINT RightLeg
			{
				OFFSET -0.082453 -29.241932 0.688000
				CHANNELS 3 Xrotation Yrotation Zrotation
				JOINT RightFoot
				{
					OFFSET 0.082453 -29.568058 -0.264600
					CHANNELS 3 Xrotation Yrotation Zrotation
					JOINT RightToeBase
					{
						OFFSET -3.115300 -8.682800 16.113400
						CHANNELS 3 Xrotation Yrotation Zrotation
						End Site
						{
							OFFSET 0.000000 18.567114 0.000000
						}
					}
				}
			}
			JOINT Right_ShortSleeve
			{
				OFFSET -0.265923 -10.480953 1.153800
				CHANNELS 3 Xrotation Yrotation Zrotation
				End Site
				{
					OFFSET -1.725766 19.823910 0.000000
				}
			}
		}
	}
	JOINT Spine
	{
		OFFSET 0.000000 13.368103 0.470500
		CHANNELS 3 Xrotation Yrotation Zrotation
		JOINT Spine1
		{
			OFFSET 0.147000 13.837402 0.538800
			CHANNELS 3 Xrotation Yrotation Zrotation
			JOINT Spine2
			{
				OFFSET 0.168000 16.242897 -1.435500
				CHANNELS 3 Xrotation Yrotation Zrotation
				JOINT Neck
				{
					OFFSET 0.217200 18.631500 -1.679100
					CHANNELS 3 Xrotation Yrotation Zrotation
					JOINT Head
					{
						OFFSET 0.000000 6.599396 1.385900
						CHANNELS 3 Xrotation Yrotation Zrotation
						JOINT Hat
						{
							OFFSET -0.532200 27.220596 -10.096100
							CHANNELS 3 Xrotation Yrotation Zrotation
							End Site
							{
								OFFSET 0.000000 22.029861 0.000000
							}
						}
						JOINT HairD
						{
							OFFSET -10.777400 17.437393 -1.325900
							CHANNELS 3 Xrotation Yrotation Zrotation
							JOINT HairD1
							{
								OFFSET -3.290299 -11.051193 1.062200
								CHANNELS 3 Xrotation Yrotation Zrotation
								End Site
								{
									OFFSET 0.000000 11.579437 0.000000
								}
							}
						}
						JOINT HairB
						{
							OFFSET -10.777400 17.437393 1.467900
							CHANNELS 3 Xrotation Yrotation Zrotation
							JOINT HairB1
							{
								OFFSET -1.561200 -12.956299 3.590200
								CHANNELS 3 Xrotation Yrotation Zrotation
								End Site
								{
									OFFSET 0.000000 13.534866 0.000000
								}
							}
						}
						JOINT HairA
						{
							OFFSET 9.713100 17.437393 1.467900
							CHANNELS 3 Xrotation Yrotation Zrotation
							JOINT HairA1
							{
								OFFSET 1.561200 -12.956299 3.590200
								CHANNELS 3 Xrotation Yrotation Zrotation
								End Site
								{
									OFFSET 0.000000 13.534866 0.000000
								}
							}
						}
						JOINT HairC
						{
							OFFSET 9.713100 17.437393 -1.325900
							CHANNELS 3 Xrotation Yrotation Zrotation
							JOINT HairC1
							{
								OFFSET 3.290300 -11.051193 1.062200
								CHANNELS 3 Xrotation Yrotation Zrotation
								End Site
								{
									OFFSET 0.000000 11.579437 0.000000
								}
							}
						}
					}
				}
				JOINT LeftShoulder
				{
					OFFSET 5.101800 15.108002 -2.763700
					CHANNELS 3 Xrotation Yrotation Zrotation
					JOINT LeftArm
					{
						OFFSET 9.825497 2.506317 -1.597400
						CHANNELS 3 Xrotation Yrotation Zrotation
						JOINT LeftForeArm
						{
							OFFSET 21.966244 0.000000 0.000000
							CHANNELS 3 Xrotation Yrotation Zrotation
							JOINT LeftHand
							{
								OFFSET 33.879036 0.000000 0.000000
								CHANNELS 3 Xrotation Yrotation Zrotation
								JOINT LeftHandThumb1
								{
									OFFSET 6.715286 -2.359680 3.363841
									CHANNELS 3 Xrotation Yrotation Zrotation
									JOINT LeftHandThumb2
									{
										OFFSET 2.507072 -1.447464 1.447461
										CHANNELS 3 Xrotation Yrotation Zrotation
										JOINT LeftHandThumb3
										{
											OFFSET 2.898338 -1.673355 1.673357
											CHANNELS 3 Xrotation Yrotation Zrotation
											End Site
											{
												OFFSET -0.295959 3.727692 -0.131651
											}
										}
									}
								}
								JOINT LeftHandIndex1
								{
									OFFSET 14.190811 -0.254547 3.840278
									CHANNELS 3 Xrotation Yrotation Zrotation
									JOINT LeftHandIndex2
									{
										OFFSET 3.551727 0.000000 -0.000000
										CHANNELS 3 Xrotation Yrotation Zrotation
										JOINT LeftHandIndex3
										{
											OFFSET 2.894196 0.000000 0.000000
											CHANNELS 3 Xrotation Yrotation Zrotation
											End Site
											{
												OFFSET -1.000603 2.690872 0.366626
											}
										}
									}
								}
								JOINT LeftHandMiddle1
								{
									OFFSET 13.776489 0.000000 0.000000
									CHANNELS 3 Xrotation Yrotation Zrotation
									JOINT LeftHandMiddle2
									{
										OFFSET 3.438232 0.000000 0.000000
										CHANNELS 3 Xrotation Yrotation Zrotation
										JOINT LeftHandMiddle3
										{
											OFFSET 3.691551 0.000000 0.000000
											CHANNELS 3 Xrotation Yrotation Zrotation
											End Site
											{
												OFFSET -1.082298 3.499527 0.457670
											}
										}
									}
								}
								JOINT LeftHandRing1
								{
									OFFSET 13.966164 -0.268127 -3.067488
									CHANNELS 3 Xrotation Yrotation Zrotation
									JOINT LeftHandRing2
									{
										OFFSET 3.162567 0.000000 0.000000
										CHANNELS 3 Xrotation Yrotation Zrotation
										JOINT LeftHandRing3
										{
											OFFSET 3.324348 0.000000 0.000000
											CHANNELS 3 Xrotation Yrotation Zrotation
											End Site
											{
												OFFSET -0.861900 3.184998 0.405154
											}
										}
									}
								}
								JOINT LeftHandPinky1
								{
									OFFSET 13.131393 -0.168503 -5.746925
									CHANNELS 3 Xrotation Yrotation Zrotation
									JOINT LeftHandPinky2
									{
										OFFSET 2.849182 0.000000 0.000000
										CHANNELS 3 Xrotation Yrotation Zrotation
										JOINT LeftHandPinky3
										{
											OFFSET 2.805038 0.000000 0.000000
											CHANNELS 3 Xrotation Yrotation Zrotation
											End Site
											{
												OFFSET -0.882500 2.642609 0.325652
											}
										}
									}
								}
							}
							JOINT Left_Sleeve
							{
								OFFSET 6.592125 -0.646545 0.805568
								CHANNELS 3 Xrotation Yrotation Zrotation
								End Site
								{
									OFFSET -0.000179 20.275787 -0.000000
								}
							}
						}
					}
				}
				JOINT RightShoulder
				{
					OFFSET -5.731700 15.108002 -2.763700
					CHANNELS 3 Xrotation Yrotation Zrotation
					JOINT RightArm
					{
						OFFSET -9.825497 2.506317 -1.597400
						CHANNELS 3 Xrotation Yrotation Zrotation
						JOINT RightForeArm
						{
							OFFSET -21.966242 0.000000 0.000000
							CHANNELS 3 Xrotation Yrotation Zrotation
							JOINT RightHand
							{
								OFFSET -33.879032 0.000000 0.000000
								CHANNELS 3 Xrotation Yrotation Zrotation
								JOINT RightHandThumb1
								{
									OFFSET -6.715286 -2.359680 3.363841
									CHANNELS 3 Xrotation Yrotation Zrotation
									JOINT RightHandThumb2
									{
										OFFSET -2.507072 -1.447464 1.447461
										CHANNELS 3 Xrotation Yrotation Zrotation
										JOINT RightHandThumb3
										{
											OFFSET -2.898338 -1.673355 1.673357
											CHANNELS 3 Xrotation Yrotation Zrotation
											End Site
											{
												OFFSET 0.295959 3.727692 -0.131651
											}
										}
									}
								}
								JOINT RightHandIndex1
								{
									OFFSET -14.190811 -0.254547 3.840278
									CHANNELS 3 Xrotation Yrotation Zrotation
									JOINT RightHandIndex2
									{
										OFFSET -3.551727 0.000000 -0.000000
										CHANNELS 3 Xrotation Yrotation Zrotation
										JOINT RightHandIndex3
										{
											OFFSET -2.894196 0.000000 0.000000
											CHANNELS 3 Xrotation Yrotation Zrotation
											End Site
											{
												OFFSET 1.000603 2.690872 0.366626
											}
										}
									}
								}
								JOINT RightHandMiddle1
								{
									OFFSET -13.776489 0.000000 0.000000
									CHANNELS 3 Xrotation Yrotation Zrotation
									JOINT RightHandMiddle2
									{
										OFFSET -3.438232 0.000000 0.000000
										CHANNELS 3 Xrotation Yrotation Zrotation
										JOINT RightHandMiddle3
										{
											OFFSET -3.691551 0.000000 0.000000
											CHANNELS 3 Xrotation Yrotation Zrotation
											End Site
											{
												OFFSET 1.082298 3.499527 0.457670
											}
										}
									}
								}
								JOINT RightHandRing1
								{
									OFFSET -13.966164 -0.268127 -3.067488
									CHANNELS 3 Xrotation Yrotation Zrotation
									JOINT RightHandRing2
									{
										OFFSET -3.162567 0.000000 0.000000
										CHANNELS 3 Xrotation Yrotation Zrotation
										JOINT RightHandRing3
										{
											OFFSET -3.324348 0.000000 0.000000
											CHANNELS 3 Xrotation Yrotation Zrotation
											End Site
											{
												OFFSET 0.861900 3.184998 0.405154
											}
										}
									}
								}
								JOINT RightHandPinky1
								{
									OFFSET -13.131393 -0.168503 -5.746925
									CHANNELS 3 Xrotation Yrotation Zrotation
									JOINT RightHandPinky2
									{
										OFFSET -2.849182 0.000000 0.000000
										CHANNELS 3 Xrotation Yrotation Zrotation
										JOINT RightHandPinky3
										{
											OFFSET -2.805038 0.000000 0.000000
											CHANNELS 3 Xrotation Yrotation Zrotation
											End Site
											{
												OFFSET 0.882500 2.642609 0.325652
											}
										}
									}
								}
							}
							JOINT Right_Sleeve
							{
								OFFSET -6.592125 -0.646545 0.805568
								CHANNELS 3 Xrotation Yrotation Zrotation
								End Site
								{
									OFFSET 0.000179 20.275787 -0.000000
								}
							}
						}
					}
				}
				JOINT Bind_Right_JacketString
				{
					OFFSET -3.534800 11.969597 7.200700
					CHANNELS 3 Xrotation Yrotation Zrotation
					JOINT Bind_Right_JacketString1
					{
						OFFSET -0.319900 -6.102600 2.794100
						CHANNELS 3 Xrotation Yrotation Zrotation
						End Site
						{
							OFFSET 0.000000 6.719452 0.000000
						}
					}
				}
				JOINT Bind_Left_JacketString
				{
					OFFSET 2.904800 11.969597 7.200700
					CHANNELS 3 Xrotation Yrotation Zrotation
					JOINT Bind_Left_JacketString1
					{
						OFFSET 0.364800 -5.904503 3.186800
						CHANNELS 3 Xrotation Yrotation Zrotation
						End Site
						{
							OFFSET 0.000000 6.719513 0.000000
						}
					}
				}
				JOINT HairE
				{
					OFFSET 5.915200 17.612701 -11.592200
					CHANNELS 3 Xrotation Yrotation Zrotation
					JOINT HairE1
					{
						OFFSET 0.289200 -7.171898 -1.284500
						CHANNELS 3 Xrotation Yrotation Zrotation
						End Site
						{
							OFFSET 0.000000 7.291756 0.000000
						}
					}
				}
				JOINT HairF
				{
					OFFSET -0.864800 17.612701 -11.592200
					CHANNELS 3 Xrotation Yrotation Zrotation
					JOINT HairF1
					{
						OFFSET 0.000000 -14.087097 -2.127501
						CHANNELS 3 Xrotation Yrotation Zrotation
						End Site
						{
							OFFSET 0.000000 14.246841 0.000000
						}
					}
				}
				JOINT HairG
				{
					OFFSET -8.087700 17.612701 -11.592200
					CHANNELS 3 Xrotation Yrotation Zrotation
					JOINT HairG1
					{
						OFFSET -0.293600 -6.081398 -0.910100
						CHANNELS 3 Xrotation Yrotation Zrotation
						End Site
						{
							OFFSET 0.000000 6.156120 0.000000
						}
					}
				}
			}
		}
	}
	JOINT Pouch
	{
		OFFSET 0.000000 4.394501 10.847300
		CHANNELS 3 Xrotation Yrotation Zrotation
		End Site
		{
			OFFSET 0.000000 21.880577 0.000000
		}
	}
	JOINT Bag
	{
		OFFSET -13.229000 4.813004 -0.593300
		CHANNELS 3 Xrotation Yrotation Zrotation
		End Site
		{
			OFFSET 0.000000 21.880577 0.000000
		}
	}
	JOINT OccupyGuyFacialAnim_Joint
	{
		OFFSET 1.000000 -70.206398 -1.655000
		CHANNELS 3 Xrotation Yrotation Zrotation
		End Site
		{
			OFFSET 0.000000 21.880577 0.000000
		}
	}
}
MOTION
Frames: 4
Frame Time: 0.033333
-0.267950 61.787521 0.908279 18.235277 -5.160808 -1.643951 -0.000001 -0.000001 0.000000 -58.480257 3.809117 6.067940 114.314397 3.522142 -2.116836 -2.341599 -0.004975 -0.237463 -0.000002 -0.000000 -0.000000 -0.000001 0.000000 -0.000000 -20.928207 -7.549838 4.909254 47.595296 3.270072 -1.207672 -44.211176 0.975432 -3.538785 -0.000000 -0.000001 -0.000000 0.000000 -0.000001 -0.000001 10.436206 3.449888 3.653291 4.537479 1.045295 1.480840 4.523177 1.097424 1.494498 3.104535 -2.285425 0.745833 -25.039721 2.651141 -1.474962 0.000001 0.000000 -0.000000 0.000001 0.000000 -0.000000 0.000001 0.000000 -0.000000 0.000001 0.000000 -0.000000 0.000001 -0.000000 0.000000 0.000001 0.000000 -0.000000 0.000001 -0.000000 0.000000 0.000001 0.000000 -0.000000 0.000001 0.000000 -0.000000 0.650861 -5.884803 -6.746274 37.179455 -20.889109 -53.344604 -0.000013 -61.007844 -0.000017 -10.849294 -10.171293 19.170347 -0.053297 5.013299 7.154795 -0.966470 24.316804 1.395933 0.000001 0.000001 0.000002 4.242116 6.383645 -62.646857 4.241039 6.356787 -67.389508 0.000002 0.000001 -0.000002 3.314973 5.888798 -58.802874 4.945865 6.604673 -73.627984 0.000001 -0.000003 0.000002 3.047181 5.768680 -62.637384 5.593326 6.760181 -79.187581 0.000000 0.000004 -0.000004 5.630445 7.131785 -61.818553 5.489513 2.653107 -78.340733 -0.000000 -0.000000 -0.000001 -0.000002 -0.000001 -0.000000 0.422023 14.895306 11.324655 -0.646815 7.198071 54.224025 -0.000093 81.951082 0.000121 -26.294292 4.645580 -4.191168 -4.787126 -7.380649 -0.969369 17.294809 -25.325390 -0.358874 -0.000001 -0.000002 0.000000 5.289724 -6.774003 71.339427 5.027555 -6.678722 73.915672 -0.000001 -0.000003 0.000003 4.936836 -6.652131 73.214635 6.315104 -6.919461 84.759198 -0.000000 0.000001 -0.000001 4.207487 -6.433858 73.244080 6.310586 -6.919069 84.721762 -0.000000 0.000001 0.000000 2.670313 -5.785866 68.437922 6.314705 -6.919419 84.755783 -0.000003 -0.000001 -0.000001 0.000001 -0.000001 -0.000000 -0.000001 0.000000 0.000000 0.000003 0.000000 -0.000000 -0.000001 0.000000 0.000000 -0.000001 0.000000 0.000000 -0.000001 0.000000 0.000000 0.000003 0.000000 -0.000000 -0.000001 0.000000 0.000000 -0.000001 0.000000 0.000000 -0.000001 0.000000 0.000000 0.000003 0.000000 -0.000000 -0.000001 -0.000001 0.000000 -0.000001 -0.000001 0.000000 -0.000001 -0.000001 0.000000 
-0.714103 62.532158 12.372899 14.986198 -2.364509 -1.745227 -0.000001 0.000000 -0.000000 -68.795400 1.260838 5.136934 105.994086 3.043976 -1.708177 -7.350109 2.550751 -1.976439 -0.000000 -0.000000 0.000001 -0.000004 0.000000 -0.000000 1.869407 -11.063587 5.484033 29.771753 6.488319 -2.919818 -38.771794 0.029877 -2.419936 -0.000001 -0.000000 -0.000000 0.000000 0.000001 -0.000001 9.481186 5.019070 1.673781 3.963194 1.596759 0.932374 3.943356 1.640032 0.942199 3.524765 -3.045127 1.099303 -22.074912 -3.048275 0.173982 0.000001 -0.000000 -0.000000 0.000001 -0.000000 -0.000000 0.000001 -0.000000 -0.000000 0.000001 -0.000000 -0.000000 0.000001 0.000000 -0.000000 0.000001 -0.000000 -0.000000 0.000001 0.000000 -0.000000 0.000001 -0.000000 -0.000000 0.000001 -0.000000 -0.000000 0.649838 -5.197536 -5.865940 45.616457 -14.899248 -52.350026 0.000011 -67.990558 0.000010 -10.070386 4.672158 -3.862133 -0.053299 5.013292 7.154762 -0.966502 24.316797 1.395938 -0.000001 0.000002 -0.000001 4.242105 6.383640 -62.646850 4.241040 6.356792 -67.389508 0.000001 -0.000000 -0.000000 3.314968 5.888796 -58.802888 4.945872 6.604675 -73.627964 0.000002 -0.000002 0.000002 3.047172 5.768685 -62.637397 5.593333 6.760184 -79.187615 -0.000002 0.000000 -0.000002 5.630446 7.131771 -61.818574 5.489497 2.653108 -78.340692 -0.000001 0.000002 -0.000000 0.000003 0.000000 0.000000 0.507675 13.808874 10.580567 0.753022 6.755279 54.671102 -0.022436 91.187793 0.022444 -19.736422 11.543616 -3.017619 -4.787122 -7.380641 -0.969364 17.294828 -25.325392 -0.358857 0.000001 -0.000001 0.000003 5.289722 -6.774008 71.339441 5.027583 -6.678711 73.915699 -0.000000 0.000003 -0.000003 4.936850 -6.652103 73.214628 6.315109 -6.919460 84.759198 -0.000000 -0.000003 -0.000001 4.207491 -6.433847 73.244087 6.310616 -6.919065 84.721796 -0.000000 -0.000000 -0.000002 2.670312 -5.785872 68.437929 6.314709 -6.919435 84.755756 -0.000001 0.000002 0.000004 0.000002 0.000002 -0.000001 0.000001 0.000000 0.000000 0.000001 0.000000 0.000000 0.000001 0.000000 -0.000000 0.000001 0.000000 -0.000000 0.000001 0.000000 0.000000 0.000001 0.000000 0.000000 0.000001 0.000000 -0.000000 0.000001 0.000000 -0.000000 0.000001 0.000000 0.000000 0.000001 0.000000 0.000000 -0.000001 0.000000 -0.000000 -0.000001 0.000000 -0.000000 -0.000001 0.000000 -0.000000 
-1.227467 64.442162 23.808411 11.364169 1.478792 -1.912260 0.000000 -0.000000 -0.000000 -69.772718 2.253765 3.221432 86.399154 3.058735 -1.492400 -14.512327 6.580848 -2.945290 -0.000000 0.000001 -0.000000 0.000000 0.000001 -0.000000 13.892561 -11.814889 7.376229 27.747833 6.986673 -5.779005 -19.197570 -0.731093 -0.221780 -0.000003 0.000000 -0.000000 -0.000001 0.000001 -0.000001 8.376327 5.443920 -0.358636 3.072954 1.845120 0.227826 3.061084 1.860788 0.224498 3.611302 -3.723453 0.924359 -18.811174 -8.646941 1.888680 0.000001 0.000000 -0.000000 0.000001 0.000000 -0.000000 0.000001 0.000000 -0.000000 0.000001 0.000000 -0.000000 -0.000000 0.000000 0.000000 0.000001 0.000000 -0.000000 -0.000000 0.000000 0.000000 0.000001 0.000000 -0.000000 0.000001 0.000000 -0.000000 0.644538 -4.738926 -5.130699 55.318139 -10.818870 -48.642623 0.000015 -77.925492 -0.000024 -8.968996 13.439053 -21.056577 -0.053293 5.013291 7.154772 -0.966490 24.316802 1.395937 -0.000004 -0.000002 -0.000000 4.242117 6.383636 -62.646850 4.241039 6.356785 -67.389508 0.000003 -0.000001 0.000001 3.314968 5.888794 -58.802881 4.945871 6.604693 -73.627964 0.000003 -0.000002 0.000004 3.047174 5.768675 -62.637404 5.593328 6.760173 -79.187629 -0.000004 -0.000000 -0.000000 5.630448 7.131774 -61.818574 5.489494 2.653102 -78.340699 -0.000001 -0.000000 0.000003 0.000004 0.000000 0.000000 0.612284 12.012867 9.415073 5.786861 7.972948 57.042065 -0.000031 95.349694 -0.000004 -15.174151 17.053485 -4.787741 -4.787133 -7.380644 -0.969367 17.294833 -25.325384 -0.358860 0.000002 -0.000001 0.000002 5.289711 -6.773992 71.339434 5.027551 -6.678719 73.915679 -0.000001 -0.000002 0.000002 4.936836 -6.652105 73.214635 6.315105 -6.919449 84.759198 -0.000000 -0.000000 -0.000003 4.207489 -6.433848 73.244080 6.310590 -6.919070 84.721783 0.000000 -0.000001 -0.000000 2.670301 -5.785873 68.437915 6.314706 -6.919443 84.755735 0.000001 0.000000 0.000000 0.000001 -0.000001 -0.000002 0.000001 0.000000 0.000000 -0.000001 0.000000 0.000000 0.000001 0.000000 0.000000 0.000001 0.000000 0.000000 0.000001 0.000000 0.000000 -0.000001 0.000000 0.000000 0.000001 0.000000 0.000000 0.000001 0.000000 0.000000 0.000001 0.000000 0.000000 -0.000001 0.000000 0.000000 0.000000 -0.000000 -0.000000 0.000000 -0.000000 -0.000000 0.000000 -0.000000 -0.000000 
-1.544567 65.262093 35.047318 8.168073 4.946390 -2.300498 -0.000001 -0.000001 -0.000000 -64.082126 5.904824 2.186709 63.200164 0.815469 -1.602867 -23.069883 6.481448 -6.213942 -0.000002 -0.000000 -0.000001 -0.000000 -0.000001 -0.000001 15.970400 -9.960105 7.811127 33.170052 9.157043 -7.629374 13.711454 2.106236 10.222840 -0.000001 0.000001 0.000001 -0.000002 -0.000001 -0.000001 6.889677 5.244305 -1.653911 1.681675 1.868902 -0.233373 1.679694 1.858248 -0.262601 3.360836 -4.215095 0.386417 -15.789980 -12.929834 2.933474 0.000001 0.000000 -0.000000 0.000001 0.000000 -0.000000 0.000001 0.000000 -0.000000 0.000001 0.000000 -0.000000 0.000000 0.000000 -0.000000 0.000001 0.000000 -0.000000 0.000000 0.000000 -0.000000 0.000001 0.000000 -0.000000 0.000001 0.000000 -0.000000 0.636865 -4.470376 -4.784051 62.403108 -8.812685 -45.727468 -0.000108 -86.199064 -0.000116 -7.340910 20.287511 -31.710041 -0.053300 5.013285 7.154779 -0.966486 24.316788 1.395908 -0.000004 -0.000000 -0.000002 4.242110 6.383630 -62.646850 4.241037 6.356798 -67.389522 -0.000000 0.000000 -0.000002 3.314970 5.888794 -58.802888 4.945859 6.604673 -73.627943 -0.000000 0.000001 -0.000003 3.047177 5.768675 -62.637404 5.593324 6.760184 -79.187594 -0.000000 0.000000 -0.000002 5.630453 7.131773 -61.818581 5.489491 2.653110 -78.340719 -0.000002 0.000001 -0.000001 0.000003 0.000000 0.000002 0.667879 10.397154 8.459141 13.115197 8.283746 59.969648 -0.000051 95.160757 -0.000004 -16.746150 17.331212 -4.524725 -4.787136 -7.380638 -0.969378 17.294826 -25.325370 -0.358856 -0.000001 0.000003 -0.000001 5.289698 -6.774002 71.339448 5.027566 -6.678739 73.915679 -0.000000 -0.000001 0.000002 4.936811 -6.652123 73.214635 6.315114 -6.919472 84.759198 -0.000001 0.000000 0.000001 4.207477 -6.433847 73.244094 6.310600 -6.919070 84.721796 -0.000000 -0.000000 -0.000001 2.670285 -5.785864 68.437935 6.314707 -6.919443 84.755790 -0.000001 0.000000 -0.000001 -0.000001 -0.000002 -0.000001 0.000001 -0.000000 -0.000000 0.000001 -0.000000 0.000000 0.000001 -0.000000 -0.000000 0.000001 -0.000000 -0.000000 0.000001 -0.000000 -0.000000 0.000001 -0.000000 -0.000000 0.000001 -0.000000 -0.000000 0.000001 -0.000000 -0.000000 0.000001 -0.000000 -0.000000 0.000001 -0.000000 -0.000000 -0.000001 -0.000001 -0.000000 -0.000001 -0.000001 -0.000000 -0.000001 -0.000001 -0.000000 
